<?xml version="1.0" standalone="no"?><svg xmlns="http://www.w3.org/2000/svg" viewBox="0 0 1440 320"><path fill="#273036" fill-opacity="1" d="M0,224L9.2,192C18.5,160,37,96,55,69.3C73.8,43,92,53,111,85.3C129.2,117,148,171,166,165.3C184.6,160,203,96,222,58.7C240,21,258,11,277,10.7C295.4,11,314,21,332,42.7C350.8,64,369,96,388,133.3C406.2,171,425,213,443,240C461.5,267,480,277,498,240C516.9,203,535,117,554,69.3C572.3,21,591,11,609,48C627.7,85,646,171,665,170.7C683.1,171,702,85,720,80C738.5,75,757,149,775,176C793.8,203,812,181,831,154.7C849.2,128,868,96,886,85.3C904.6,75,923,85,942,96C960,107,978,117,997,106.7C1015.4,96,1034,64,1052,90.7C1070.8,117,1089,203,1108,240C1126.2,277,1145,267,1163,234.7C1181.5,203,1200,149,1218,112C1236.9,75,1255,53,1274,80C1292.3,107,1311,181,1329,218.7C1347.7,256,1366,256,1385,229.3C1403.1,203,1422,149,1431,122.7L1440,96L1440,320L1430.8,320C1421.5,320,1403,320,1385,320C1366.2,320,1348,320,1329,320C1310.8,320,1292,320,1274,320C1255.4,320,1237,320,1218,320C1200,320,1182,320,1163,320C1144.6,320,1126,320,1108,320C1089.2,320,1071,320,1052,320C1033.8,320,1015,320,997,320C978.5,320,960,320,942,320C923.1,320,905,320,886,320C867.7,320,849,320,831,320C812.3,320,794,320,775,320C756.9,320,738,320,720,320C701.5,320,683,320,665,320C646.2,320,628,320,609,320C590.8,320,572,320,554,320C535.4,320,517,320,498,320C480,320,462,320,443,320C424.6,320,406,320,388,320C369.2,320,351,320,332,320C313.8,320,295,320,277,320C258.5,320,240,320,222,320C203.1,320,185,320,166,320C147.7,320,129,320,111,320C92.3,320,74,320,55,320C36.9,320,18,320,9,320L0,320Z"></path></svg>